<svg width="32" height="32" viewBox="0 0 32 32" fill="none" xmlns="http://www.w3.org/2000/svg">
<g clip-path="url(#clip0_1014_820)">
<path d="M2 16C0.896 16 0 16.896 0 18V28C0 29.104 0.896 30 2 30C3.104 30 4 29.104 4 28V18C4 16.896 3.104 16 2 16Z" fill="#272E35"/>
<path d="M30 16C28.896 16 28 16.896 28 18V28C28 29.104 28.896 30 30 30C31.104 30 32 29.104 32 28V18C32 16.896 31.104 16 30 16Z" fill="#272E35"/>
<path d="M26 16H6V32H26V16Z" fill="#272E35"/>
<path d="M6 14.0003H26C26 10.8903 24.552 8.14834 22.326 6.31434L24.832 2.55434C25.138 2.09634 25.014 1.47434 24.554 1.16834C24.092 0.862341 23.472 0.984341 23.168 1.44634L20.662 5.20434C19.264 4.46034 17.694 4.00034 16 4.00034C14.306 4.00034 12.736 4.46034 11.338 5.20434L8.832 1.44634C8.526 0.986341 7.906 0.862341 7.446 1.16834C6.986 1.47434 6.862 2.09634 7.168 2.55434L9.674 6.31434C7.448 8.14834 6 10.8903 6 14.0003Z" fill="#272E35"/>
</g>
<defs>
<clipPath id="clip0_1014_820">
<rect width="32" height="32" fill="white"/>
</clipPath>
</defs>
</svg>
