<svg width="20" height="20" viewBox="0 0 20 20" fill="none" xmlns="http://www.w3.org/2000/svg">
<path d="M14.1667 0C14.6269 0 15 0.373096 15 0.833333V2.5C15 2.96024 14.6269 3.33333 14.1667 3.33333C13.7064 3.33333 13.3333 2.96024 13.3333 2.5V0.833333C13.3333 0.373096 13.7064 0 14.1667 0Z" fill="#777E91"/>
<path d="M14.1667 10C14.6269 10 15 10.3731 15 10.8333V15.8333C15 16.2936 14.6269 16.6667 14.1667 16.6667C13.7064 16.6667 13.3333 16.2936 13.3333 15.8333V10.8333C13.3333 10.3731 13.7064 10 14.1667 10Z" fill="#777E91"/>
<path d="M5.83333 3.33333C6.29357 3.33333 6.66667 3.70643 6.66667 4.16667V10.8333C6.66667 11.2936 6.29357 11.6667 5.83333 11.6667C5.3731 11.6667 5 11.2936 5 10.8333V4.16667C5 3.70643 5.3731 3.33333 5.83333 3.33333Z" fill="#777E91"/>
<path d="M5.83333 15C6.29357 15 6.66667 15.3731 6.66667 15.8333V19.1667C6.66667 19.6269 6.29357 20 5.83333 20C5.3731 20 5 19.6269 5 19.1667V15.8333C5 15.3731 5.3731 15 5.83333 15Z" fill="#777E91"/>
<path fill-rule="evenodd" clip-rule="evenodd" d="M11.6666 4.16666C11.6666 2.78594 12.7859 1.66666 14.1666 1.66666C15.5473 1.66666 16.6666 2.78594 16.6666 4.16666V9.16666C16.6666 10.5474 15.5473 11.6667 14.1666 11.6667C12.7859 11.6667 11.6666 10.5474 11.6666 9.16666V4.16666ZM14.9999 4.16666V9.16666C14.9999 9.62689 14.6268 9.99999 14.1666 9.99999C13.7063 9.99999 13.3333 9.62689 13.3333 9.16666V4.16666C13.3333 3.70642 13.7063 3.33332 14.1666 3.33332C14.6268 3.33332 14.9999 3.70642 14.9999 4.16666Z" fill="#777E91"/>
<path fill-rule="evenodd" clip-rule="evenodd" d="M3.33325 12.5C3.33325 11.1193 4.45254 9.99999 5.83325 9.99999C7.21396 9.99999 8.33325 11.1193 8.33325 12.5V14.1667C8.33325 15.5474 7.21396 16.6667 5.83325 16.6667C4.45254 16.6667 3.33325 15.5474 3.33325 14.1667V12.5ZM6.66658 12.5V14.1667C6.66658 14.6269 6.29349 15 5.83325 15C5.37301 15 4.99992 14.6269 4.99992 14.1667V12.5C4.99992 12.0398 5.37301 11.6667 5.83325 11.6667C6.29349 11.6667 6.66658 12.0398 6.66658 12.5Z" fill="#777E91"/>
</svg>
