<svg width="16" height="16" viewBox="0 0 16 16" fill="none" xmlns="http://www.w3.org/2000/svg">
<path d="M11.9893 9.67097C12.0044 9.92048 12.2649 10.0888 12.4766 9.95594C13.792 9.13065 14.6666 7.66746 14.6666 6C14.6666 3.42267 12.5772 1.33333 9.99991 1.33333C8.33245 1.33333 6.86925 2.20787 6.04397 3.52329C5.91112 3.73503 6.07943 3.99554 6.32894 4.01054C9.31282 4.18992 11.8099 6.68966 11.9893 9.67097Z" fill="#3772FF"/>
<path d="M10.6666 10C10.6666 12.5773 8.57725 14.6667 5.99992 14.6667C3.42259 14.6667 1.33325 12.5773 1.33325 10C1.33325 7.42267 3.42259 5.33334 5.99992 5.33334C8.57725 5.33334 10.6666 7.42267 10.6666 10Z" fill="#3772FF"/>
</svg>
