<svg width="24" height="23" viewBox="0 0 24 23" fill="none" xmlns="http://www.w3.org/2000/svg">
<path d="M12.746 1.42088L15.856 7.72088L22.81 8.73288C22.9636 8.75503 23.1079 8.81974 23.2266 8.9197C23.3453 9.01966 23.4337 9.15086 23.4817 9.29844C23.5296 9.44603 23.5353 9.6041 23.4981 9.75476C23.4609 9.90542 23.3822 10.0426 23.271 10.1509L18.238 15.0509L19.426 21.9769C19.4522 22.1299 19.4351 22.2871 19.3766 22.4309C19.3181 22.5746 19.2205 22.6992 19.095 22.7904C18.9694 22.8816 18.8208 22.9359 18.666 22.9472C18.5112 22.9584 18.3564 22.9261 18.219 22.8539L12 19.5889L5.77997 22.8569C5.64245 22.9287 5.48759 22.9608 5.33285 22.9493C5.1781 22.9379 5.02963 22.8835 4.90415 22.7922C4.77867 22.701 4.68118 22.5765 4.62267 22.4327C4.56415 22.289 4.54694 22.1318 4.57297 21.9789L5.76097 15.0569L0.727965 10.1569C0.616754 10.0486 0.538074 9.91142 0.500838 9.76076C0.463602 9.6101 0.469297 9.45203 0.517278 9.30445C0.565259 9.15686 0.653609 9.02566 0.772321 8.9257C0.891033 8.82574 1.03536 8.76103 1.18897 8.73888L8.14296 7.72188L11.253 1.42188C11.3218 1.2827 11.4281 1.16553 11.5599 1.08356C11.6918 1.0016 11.8439 0.958112 11.9992 0.958008C12.1544 0.957904 12.3066 1.00119 12.4385 1.08297C12.5705 1.16476 12.677 1.2818 12.746 1.42088Z" fill="#FF6E30"/>
</svg>
