<svg width="32" height="32" viewBox="0 0 32 32" fill="none" xmlns="http://www.w3.org/2000/svg">
<path d="M14.6746 2.51131C20.432 1.63034 26.2003 0.800548 31.9687 0C31.9723 5.05552 31.9687 10.1074 31.9723 15.1629C26.2076 15.1848 20.443 15.2726 14.6746 15.2908C14.671 11.0286 14.671 6.76993 14.6746 2.51131ZM0.0527344 4.55106C4.38812 3.88211 8.74216 3.30455 13.0958 2.75988C13.0995 6.95271 13.0995 11.1419 13.1031 15.3347C8.75312 15.331 4.40275 15.3968 0.0527344 15.3859V4.55106ZM0.0527344 16.7055C4.39946 16.6909 8.74545 16.7603 13.0918 16.753C13.0918 20.9568 13.1028 25.1606 13.0958 29.3644C8.75312 28.7207 4.40275 28.1581 0.0527344 27.5696V16.7055ZM14.649 16.8737H31.9687C31.976 21.9146 31.9687 26.9555 31.9687 32C26.2113 31.1373 20.443 30.3368 14.6746 29.5549C14.6673 25.3288 14.6563 21.103 14.649 16.8737Z" fill="#272E35"/>
</svg>
